<svg xmlns="http://www.w3.org/2000/svg" viewBox="0 0 242.51 268.8"><defs><style>.cls-1{fill-opacity:0.1;fill-rule:evenodd;}.cls-2{fill:#e2b691;}.cls-3{fill:#fff;}.cls-4{fill:#2c3e50;}.cls-5{fill:#ded1d4;}.cls-6{fill:#f2f2f2;}.cls-7{fill:#eadde0;}.cls-8{fill:#eae3e5;}.cls-9{fill:#fcfcfc;}.cls-10{fill:#fff7fa;}.cls-11{fill:#f0f0f0;}</style></defs><g id="Слой_2" data-name="Слой 2"><g id="Layer_1" data-name="Layer 1"><path id="Neck-Shadow" class="cls-1" d="M177.26,115v23a56,56,0,0,1-112,0v-8a56,56,0,0,0,112,0Z"/><path class="cls-2" d="M202.38,222.38l.42.47Z"/><path class="cls-2" d="M166,201c.78.19,1.55.38,2.31.59C167.55,201.35,166.78,201.16,166,201Z"/><path class="cls-2" d="M204.79,225.15l0,0Z"/><path class="cls-2" d="M199.94,219.85l.36.35Z"/><path class="cls-2" d="M189.36,211.18l.45.3Z"/><path class="cls-2" d="M173.71,203.26l1,.36Z"/><path class="cls-2" d="M194.83,215.24l.46.38Z"/><path class="cls-2" d="M170,202l1.3.4Z"/><path class="cls-2" d="M197.61,217.63l.24.22Z"/><path class="cls-2" d="M176.73,204.43l.8.33Z"/><path class="cls-2" d="M206.72,227.6c.14.18.28.36.41.55C207,228,206.86,227.78,206.72,227.6Z"/><path class="cls-2" d="M212.4,236.37l.34.62Z"/><path class="cls-2" d="M73.7,201.7c.89-.25,1.79-.48,2.69-.7C75.49,201.22,74.59,201.45,73.7,201.7Z"/><path class="cls-2" d="M183.53,207.65l.26.14Z"/><path class="cls-2" d="M192.21,213.19l.19.14Z"/><path class="cls-2" d="M208.86,230.57l.32.49Z"/><path class="cls-2" d="M180.13,205.93l.76.37Z"/><path class="cls-2" d="M186.27,209.22l.55.33Z"/><path class="cls-2" d="M78,200.63l1.23-.26Z"/><path class="cls-2" d="M210.65,233.35c.08.14.18.28.26.42C210.83,233.63,210.73,233.49,210.65,233.35Z"/><path class="cls-3" d="M177.53,204.76c.88.37,1.74.77,2.6,1.17C179.27,205.53,178.41,205.13,177.53,204.76Z"/><path class="cls-3" d="M76.39,201l1.61-.37Z"/><path class="cls-3" d="M73.1,201.87l.6-.17Z"/><path class="cls-3" d="M81.7,199.92c-.83.14-1.65.29-2.47.45.82-.16,1.64-.3,2.47-.44Z"/><path class="cls-3" d="M171.25,202.43c.82.26,1.65.54,2.46.83C172.9,203,172.07,202.69,171.25,202.43Z"/><path class="cls-3" d="M164.83,200.7,166,201Z"/><path class="cls-3" d="M168.31,201.56c.55.15,1.1.3,1.64.47C169.41,201.86,168.86,201.71,168.31,201.56Z"/><path class="cls-3" d="M174.67,203.62c.69.26,1.38.53,2.06.81C176.05,204.15,175.36,203.88,174.67,203.62Z"/><path class="cls-3" d="M204.83,225.2c.65.78,1.28,1.59,1.89,2.4C206.11,226.79,205.48,226,204.83,225.2Z"/><path class="cls-3" d="M200.3,220.2c.71.71,1.4,1.44,2.08,2.18C201.7,221.64,201,220.91,200.3,220.2Z"/><path class="cls-3" d="M207.13,228.15c.59.79,1.17,1.6,1.73,2.42C208.3,229.75,207.72,228.94,207.13,228.15Z"/><path class="cls-3" d="M202.8,222.85c.68.75,1.35,1.51,2,2.3C204.15,224.36,203.48,223.6,202.8,222.85Z"/><path class="cls-3" d="M209.18,231.06c.5.75,1,1.52,1.47,2.29C210.17,232.57,209.68,231.81,209.18,231.06Z"/><path class="cls-3" d="M214.09,239.61c-.43-.88-.88-1.75-1.35-2.62.47.87.92,1.74,1.34,2.63Z"/><path class="cls-3" d="M210.91,233.77c.52.86,1,1.72,1.49,2.6C211.92,235.49,211.43,234.63,210.91,233.77Z"/><path class="cls-3" d="M186.82,209.55c.86.53,1.7,1.07,2.54,1.63C188.52,210.62,187.68,210.08,186.82,209.55Z"/><path class="cls-3" d="M180.89,206.3q1.34.64,2.64,1.35Q182.23,206.95,180.89,206.3Z"/><path class="cls-3" d="M197.85,217.85c.71.65,1.41,1.32,2.09,2C199.26,219.17,198.56,218.5,197.85,217.85Z"/><path class="cls-3" d="M189.81,211.48q1.22.84,2.4,1.71Q191,212.32,189.81,211.48Z"/><path class="cls-3" d="M183.79,207.79c.84.46,1.66.94,2.48,1.43C185.45,208.73,184.63,208.25,183.79,207.79Z"/><path class="cls-3" d="M192.4,213.33c.82.62,1.63,1.26,2.43,1.91C194,214.59,193.22,214,192.4,213.33Z"/><path class="cls-3" d="M195.29,215.62c.79.66,1.56,1.33,2.32,2C196.85,217,196.08,216.28,195.29,215.62Z"/><circle class="cls-4" cx="121.26" cy="147.55" r="121.26"/><path class="cls-5" d="M179.12,201.87a29.07,29.07,0,0,0-.25-3.24,19.28,19.28,0,0,0-.5-2.39l0-.16a1.31,1.31,0,0,0-.05-.15c0-.12-.06-.26-.1-.37s-.1-.27-.15-.4c-.24-.73-.52-1.48-.74-2.12l-1-2c0-.16.08-.33.09-.49a22.17,22.17,0,0,0-.53-6.19,17,17,0,0,0-.58-2.09c-.31-.9-.8-2.07-1.19-2.94a15.78,15.78,0,0,1,.55,1.54,24.83,24.83,0,0,0-5.66-8.61l-7.37-7.4c0,.09,0,.18,0,.28a17.53,17.53,0,0,0-.1-2.47,19.43,19.43,0,0,0-2.51-7.49,22.09,22.09,0,0,0-3.14-4.19,20,20,0,0,0-1.67-1.62l-.18-.15c-.45-.4-.91-.79-1.3-1.12.27.21.45.46.7.68-.51-.44-1.14-.85-1.72-1.27a312.69,312.69,0,0,1-7-50.43l1.12-.49.55-.23.64-.31,1.06-.52.08,0c.7-.36,1.14-.61,1.14-.61l.08,0,.12-.07c.71-.42,1.25-.75,1.72-1l.17-.08.27-.18.11-.07.11-.08c.43-.28.8-.53,1.17-.8h0l.79-.59.06,0c.06-.06.11-.09.18-.15s.3-.26.48-.42c.47-.4,1-.8,1.36-1.15l.18-.18.36-.33.54-.57.54-.55,0,0h0l.1-.12.18-.19c.43-.49.91-1.1,1.37-1.71v0l.91-1.39c.06-.11.14-.21.21-.32l.06-.09a21.38,21.38,0,0,0,1.18-2.35l0,0,.41-1.15c0-.07.07-.13.1-.2a3.68,3.68,0,0,1,.11-.37l.06-.18a17,17,0,0,0,.68-3.51c0-.11,0-.21.05-.32s0-.35,0-.55c0-.52,0-1,0-1.61,0-.73-.07-1.37-.14-1.93,0-.1,0-.18,0-.28s0,0,0-.07a1.5,1.5,0,0,1,0-.2c-.06-.39-.17-.77-.26-1.16a25.25,25.25,0,0,0-.78-3c-.05-.14-.1-.25-.15-.39l-.07-.22c-.16-.48-.39-1-.63-1.6l-.12-.29c-.35-.79-.67-1.49-.89-1.95,0-.11-.09-.18-.14-.3s0,0,0,.06l0,0a21.8,21.8,0,0,0-6.93-7.78c.18-.28.35-.53.53-.82l.19-.3c.23-.4.46-.89.7-1.35s.47-.81.69-1.27.29-.71.45-1.08l.51-1.11.25-.69c.15-.4.28-.77.4-1.14l.28-.77-.1.2a37.88,37.88,0,0,0,1.3-5.36,36.2,36.2,0,0,0,.17-10.06,34.67,34.67,0,0,0-1.59-7,33.59,33.59,0,0,0-1.75-4.27A35.64,35.64,0,0,0,145,7.87a45.65,45.65,0,0,0-3.92-2.72A35.76,35.76,0,0,0,131.15,1a33,33,0,0,0-3.4-.66,36.92,36.92,0,0,0-11.67.26c.2,0,.37-.12.57-.16l-.24,0c-.53.09-1.23.24-1.75.35L113,1.29c-.59.17-1.36.42-2,.6l-1.48.55-.21.08-.12,0c-.68.28-1.57.69-2.24,1l-1.92,1-.44.27-.21.1c-.27.15-.47.31-.72.47l-1.24.76-.7.5-.73.53-.47.34-.85.71c-.52.44-1,.84-1.43,1.24l-.6.54-.35.35c-.57.56-1.05,1.06-1.4,1.44a34.63,34.63,0,0,0-2.71,3.4l-.24.32-.67,1c-.19.29-.36.55-.55.87l-.21.32a25.46,25.46,0,0,0-1.28,2.42,2,2,0,0,1-.11.2c-.07.15-.11.29-.18.44-.24.53-.51,1.16-.91,2.07l-.17.49c-.15.41-.27.77-.39,1.15l-.34,1c-.06.2-.08.31-.13.5a37.72,37.72,0,0,0-1,4.33c-.13.86-.24,1.76-.3,2.66l0,.18,0,1.14c0,.5-.05,1-.05,1.46v.28c0,.14,0,.32,0,.47a27.71,27.71,0,0,0,.17,3.21c.12.85.24,2,.41,2.82.27,1.28.71,3,1.06,4.22a21.85,21.85,0,0,0,.92,2.58v0a.41.41,0,0,1,0,.08c.23.56.47,1.12.69,1.58s.34.63.5,1l.73,1.47.41.68c.11.19.22.38.34.56l-.33.27-1.77,1.58c-.55.55-1.23,1.33-1.76,1.91l-1.37,1.81c-.56.86-1.23,2.06-1.72,3l0,0h0l0,0c-.28.6-.49,1.07-.69,1.52-.13.27-.21.48-.34.78-.22.51-.4,1-.57,1.42l-.21.6c0,.1-.07.2-.1.3L83,68a2,2,0,0,0-.06.23c-.11.33-.22.66-.34,1.07l-.06.23c0,.13-.06.27-.1.4l-.22.93a.13.13,0,0,0,0,.06,12.36,12.36,0,0,0-.22,1.33.8.8,0,0,0,0,.15.17.17,0,0,0,0,.07c0,.07,0,.23,0,.29,0,.5-.08,1-.1,1.36a1,1,0,0,1,0,.17v.34c0,.45,0,.91,0,1.39v.15s0,.05,0,.08c0,.35.07.76.12,1.18,0,.12,0,.24,0,.36s0,.2,0,.32.09.37.13.57,0,.2,0,.28l.09.33h0l.06.26c.08.34.17.64.26.94l.1.36c0,.1.19.62.52,1.38l.21.51c0,.09.13.24.17.33s.06.14.08.19l.08.15c.14.28.31.58.48.88s.18.32.29.52.09.18.16.28a15.45,15.45,0,0,0,1.21,1.77h0l0,.07,0,0,.11.13c.36.44.76.92,1.16,1.37l.18.22h0a1.37,1.37,0,0,0,.16.18v0a22.46,22.46,0,0,0,1.93,1.85c.44.39,1,.83,1.52,1.23a.93.93,0,0,1,.15.13l.21.16,0,0h0a23,23,0,0,0,2.12,1.44l.75.48c.52.32,1.57.93,3,1.64.33.17.8.38,1.36.64l.82.36.73.3a313.73,313.73,0,0,1-6.77,50.46c-.44.33-1,.62-1.39,1,.14-.12.23-.25.37-.36l-.56.49-.34.3c-.63.56-1.28,1.15-1.8,1.66s-1,1.06-1.36,1.53a23.18,23.18,0,0,0-2.22,3.21,19.19,19.19,0,0,0-2.44,7.44,20.22,20.22,0,0,0,0,2.06l-.53.54-1.38,1.4-.69.7L79.77,169l-1.38,1.4-.69.7-1.38,1.4a25.24,25.24,0,0,0-5.54,8.4c.17-.43.26-.87.46-1.29-.26.6-.56,1.33-.82,2a.69.69,0,0,0,0,.13c-.1.26-.22.54-.3.77-.2.58-.4,1.37-.54,2a22.69,22.69,0,0,0-.56,4.76,14.45,14.45,0,0,0,.06,1.86c0,.1,0,.23,0,.34a40.74,40.74,0,0,0-1.72,4.09,25.19,25.19,0,0,0-.84,4c-.11.78-.1,1.82-.14,2.59a19.38,19.38,0,0,0,.25,3,19.38,19.38,0,0,1-.25-3l0,7.61c0,5.94,2.84,11.86,8.44,17.09v0l.17.14a40.88,40.88,0,0,0,4.29,3.4c.16.12.28.24.44.35.76.52,1.54,1,2.36,1.51a59.33,59.33,0,0,0,8.15,4c.94.38,1.94.67,2.91,1,1.51.54,3,1.14,4.56,1.59.52.15,1.08.23,1.61.37,1.13.3,2.29.54,3.45.79s2.29.59,3.48.8v-.16c18.91,3.32,40.26.91,55.54-7.61,11.57-6.45,17.37-15.06,17.35-23.66Z"/><path class="cls-6" d="M84.72,176.41a68.32,68.32,0,0,1,18.61-6.9,91.06,91.06,0,0,1,20.52-2.1,89.49,89.49,0,0,1,20.33,2.5c1.18.31,2.75.73,3.92,1.08s2.6.87,3.72,1.24,2.52,1,3.6,1.42a58.4,58.4,0,0,1,7,3.59c-2.43-1.47-8.51,1.77-8.9,2-16.32-9.82-43.34-10.09-60.35-.61s-17.57,25.14-1.25,35,43.34,10.09,60.35.61,17.57-25.14,1.25-35c.39-.21,6.47-3.45,8.9-2,.9.58,2.15,1.31,3,1.95,1.43,1.07,3.29,2.57,4.62,3.76a34.66,34.66,0,0,1,4.27,4.84,27.29,27.29,0,0,1,1.77,2.79,45.18,45.18,0,0,1,2.09,5,17.91,17.91,0,0,1,.68,3.07,29.07,29.07,0,0,1,.25,3.24c0,8.6-5.79,17.2-17.35,23.65-22.46,12.53-58.15,12.17-79.71-.81-10.46-6.29-15.67-14.4-15.69-22.52,0-.77,0-1.81.14-2.59a25.19,25.19,0,0,1,.84-4,41.74,41.74,0,0,1,2.13-5,26.34,26.34,0,0,1,1.84-2.87,25.18,25.18,0,0,1,2.17-2.66c1.35-1.37,3.24-3.11,4.71-4.36A54.5,54.5,0,0,1,84.72,176.41Z"/><path class="cls-5" d="M162.43,177.24c1.6,1,3.65,2.44,5.16,3.57l2.47,2.14c.74.75,1.74,1.73,2.43,2.52l1.84,2.32c.54.83,1.29,1.93,1.77,2.79l1.2,2.46c.32.91.78,2.11,1,3l.53,2.55c.09,1,.23,2.26.25,3.24a19.71,19.71,0,0,1-1.09,6.44h0c.45-2.31.33-2.78.22-2.86-.72-.52-1.71,1.22-2.29,1.9-7.57,9-18.13,15.27-31.4,18.79-14.19,3.77-25.1,4-37.72,4.24a12.76,12.76,0,0,0-2.82.36c-.25.08-.64.34-.64.6,0,.45.48.71,2.85,1.95a70.82,70.82,0,0,1-24.17-8.58,43.48,43.48,0,0,1-7.28-5.42l.43.25c.6.27,1.89,1.06,2.14.46.34-.82-1-1.8-1.57-2.5-17.12-21.89-.34-35.52,7.67-40.36,1.37-.79,3.25-1.75,4.65-2.47,1.11-.49,2.59-1.17,3.72-1.63l3.68-1.35c1.18-.36,2.74-.87,3.92-1.2l3.91-1c1.21-.24,2.83-.59,4-.8l4.06-.6c1.24-.13,2.88-.32,4.12-.42l4.14-.23c1.25,0,2.91-.07,4.15-.05l4.15.13c1.24.09,2.89.19,4.12.32l4.08.5c1.21.2,2.84.45,4.05.69l3.93.86c1.18.33,2.75.73,3.92,1.08l3.72,1.24c1.12.44,2.62,1,3.72,1.48l3.43,1.61c1,.57,2.44,1.31,3.46,1.92-2.43-1.47-8.51,1.77-8.9,2-16.32-9.82-43.34-10.09-60.35-.61s-17.57,25.14-1.25,35,43.34,10.09,60.35.61,17.57-25.14,1.25-35c.39-.21,6.47-3.45,8.9-2Z"/><path class="cls-7" d="M162.81,71.89a25.65,25.65,0,0,0-1.26-4.73A41.46,41.46,0,0,0,159.77,63c-1.68-3.44-4.79-6.69-9.35-9.43a38.92,38.92,0,0,0-3.57-1.89c-15-7.05-37.09-6.65-51.4,1.33-5.19,2.9-8.71,6.44-10.52,10.2A38.76,38.76,0,0,0,83,68a22,22,0,0,0-1.09,4.76A19,19,0,0,0,82,78.15a19.65,19.65,0,0,0,1.41,4.65,22.86,22.86,0,0,0,2.48,4.12,26.21,26.21,0,0,0,1.73,2c1,1,2.47,2.29,3.59,3.2a34.22,34.22,0,0,0,5.5,3.43,45.33,45.33,0,0,0,5.19,2.27,56,56,0,0,0,11.1,2.76c2.65.34,4.11.52,5.76.58a64.12,64.12,0,0,0,8.67-.11,59.33,59.33,0,0,0,11.34-2,48.81,48.81,0,0,0,5.39-1.82,43.38,43.38,0,0,0,5.12-2.41,36.34,36.34,0,0,0,4.54-3,28.58,28.58,0,0,0,3.73-3.43,21.22,21.22,0,0,0,4.55-7.57,20.29,20.29,0,0,0,.9-4.38A21.49,21.49,0,0,0,162.81,71.89Z"/><path class="cls-8" d="M147.9,69.25s4.06-7.2-3-14.93,8.5,3.12,8.5,3.12,5.7,4,5,10.81-1.64,7.45-1.64,7.45Z"/><path class="cls-3" d="M163,76.53a19.32,19.32,0,0,1-.33,2.22l-4.46-.82-1.54-6A14.14,14.14,0,0,0,150,56a7.59,7.59,0,0,1-3.16-4.27,38.92,38.92,0,0,1,3.57,1.89c4.56,2.74,7.67,6,9.35,9.43a41.46,41.46,0,0,1,1.78,4.13,25.65,25.65,0,0,1,1.26,4.73A21.49,21.49,0,0,1,163,76.53Z"/><path class="cls-9" d="M156.88,177.91l.19-.26Zm.3-.42c.06-.08.12-.15.17-.23C157.3,177.34,157.24,177.41,157.18,177.49Zm.29-.41.16-.23Zm.27-.4.14-.23Zm.25-.41c0-.08.09-.16.14-.23S158,176.19,158,176.27Zm.24-.41c.05-.08.09-.16.13-.24C158.32,175.7,158.28,175.78,158.23,175.86Zm.23-.41.12-.24Zm.21-.42a2.56,2.56,0,0,1,.11-.24A2.56,2.56,0,0,0,158.67,175Zm.19-.41c0-.09.08-.17.11-.26C158.94,174.45,158.9,174.53,158.86,174.62Zm.18-.42.12-.3Zm.17-.41.15-.43Zm.16-.45c0-.13.09-.26.13-.4C159.46,173.08,159.41,173.21,159.37,173.34Zm.17-.54c0-.09.05-.18.08-.28C159.59,172.62,159.57,172.71,159.54,172.8Zm.12-.45a2.33,2.33,0,0,0,.07-.25A2.33,2.33,0,0,1,159.66,172.35Zm.11-.43a1.84,1.84,0,0,0,0-.25A1.84,1.84,0,0,1,159.77,171.92Zm.09-.43c0-.08,0-.16,0-.24C159.89,171.33,159.87,171.41,159.86,171.49Zm.07-.43c0-.08,0-.16,0-.24C160,170.9,159.94,171,159.93,171.06Zm.06-.42,0-.25Zm0-.43c0-.08,0-.16,0-.24C160.05,170.05,160,170.13,160,170.21Zm0-.43a2.18,2.18,0,0,1,0-.25A2.18,2.18,0,0,0,160.07,169.78Zm8.94,2.49-7.37-7.4a19.36,19.36,0,0,1-1,6.18,23.33,23.33,0,0,1-4,7.24l0,0-.09.12-.33.39h0l.09-.12a27.6,27.6,0,0,1-7.64,6.05c-14.92,8.32-38.62,8.08-52.93-.53-8.88-5.34-12.06-12.65-9.64-19.41a13.46,13.46,0,0,1-.42-1.72l-.29.29-.69.71-1.38,1.4-1.38,1.4-.69.7L79.77,169l-1.38,1.4-.69.7-1.38,1.4c-11.42,11.62-8.89,26.62,7.87,36.71,20.41,12.28,54.19,12.62,75.47.76C177.72,199.92,181,184.28,169,172.27Zm-12.44,6h0l.18-.24Zm2.73-13.62a2.25,2.25,0,0,1,.08.24A2.25,2.25,0,0,0,159.3,164.68Zm.15.42c0,.08.05.16.07.24C159.5,165.26,159.47,165.18,159.45,165.1Zm.12.43a2,2,0,0,1,.07.23A2,2,0,0,0,159.57,165.53Zm.12.42.06.24Zm.1.42c0,.09,0,.17.05.25C159.82,166.54,159.81,166.46,159.79,166.37Zm.08.43c0,.09,0,.18,0,.27C159.9,167,159.89,166.89,159.87,166.8Zm.08.42c0,.11,0,.22,0,.34C160,167.44,160,167.33,160,167.22Zm.05.43c0,.14,0,.28,0,.42C160,167.93,160,167.79,160,167.65Zm.05.54c0,.1,0,.21,0,.31C160.07,168.4,160.06,168.29,160.05,168.19Zm0,.47v0Zm0,.44v0Z"/><path class="cls-3" d="M143,187.32c-1,.39-2,.74-3.11,1.06a55.83,55.83,0,0,1-9,1.93l3.58,27.58a81.17,81.17,0,0,0,12.85-2.75c1.51-.46,3-1,4.43-1.51Z"/><path class="cls-6" d="M66.39,209.8l0-7.61c0,8.12,5.23,16.23,15.69,22.52,21.56,13,57.25,13.34,79.71.81,11.56-6.45,17.37-15.05,17.35-23.65l0,7.6c0,8.6-5.78,17.21-17.35,23.66-22.46,12.52-58.15,12.16-79.7-.81C71.62,226,66.41,217.91,66.39,209.8Z"/><path class="cls-6" d="M85.12,213.67c-1.39-.85-3.2-2.06-4.49-3.06a36.86,36.86,0,0,1-3.82-3.4c-.43-.46-1-1.07-1.43-1.56-.63-.75-1.46-1.77-2-2.58a26.36,26.36,0,0,1-2.78-5.18,25.54,25.54,0,0,1-1.18-3.9c-.16-.85-.31-2-.39-2.84a12.85,12.85,0,0,1-.06-1.86,22.69,22.69,0,0,1,.56-4.76c.14-.6.34-1.39.54-2,.31-.89.79-2.06,1.17-2.93-4.82,10.16-.55,21.47,13,29.6,20.41,12.28,54.19,12.62,75.47.76,14.68-8.18,19.56-20.05,14.46-30.65.39.87.88,2,1.19,2.94a17,17,0,0,1,.58,2.09,22.17,22.17,0,0,1,.53,6.19,23.75,23.75,0,0,1-3.29,10.61,33.21,33.21,0,0,1-9,9.79,53.34,53.34,0,0,1-5.41,3.5c-.87.47-2,1.09-2.92,1.51-1.34.62-3.15,1.41-4.53,2-17.26,6.67-39.81,6.69-57,.16-1.82-.75-4.21-1.79-6-2.64C87.32,215,86.05,214.25,85.12,213.67Z"/><path class="cls-3" d="M89.23,179a23.5,23.5,0,0,1-4.52-7.76,19.43,19.43,0,0,1-1-8.35,19.19,19.19,0,0,1,2.44-7.44,23.18,23.18,0,0,1,2.22-3.21c.4-.47.92-1.1,1.36-1.53.78-.77,1.86-1.75,2.7-2.45-10.38,8.3-9.37,19.95,3.3,27.57,14.24,8.57,37.81,8.81,52.65.53,13.61-7.59,15.14-19.71,4.31-28.27a33.2,33.2,0,0,1,3.15,2.89,22.09,22.09,0,0,1,3.14,4.19,19,19,0,0,1,1.7,15.53,23.45,23.45,0,0,1-4.59,8.12,27.83,27.83,0,0,1-7.55,5.93c-14.92,8.32-38.62,8.08-52.93-.53A26.92,26.92,0,0,1,89.23,179Z"/><path class="cls-8" d="M149.49,145.89l-3.31,2.62c12.48,7.51-29.25-6.24-20-5.67l.5-3.42c-10.58-.65-21.57,1.32-29.85,5.94a25.65,25.65,0,0,0-8.76,7.49c-5.31,7.65-2.8,16.7,7.67,23,14.24,8.57,37.81,8.81,52.65.53S163.73,154.46,149.49,145.89Z"/><path class="cls-10" d="M142.66,42.07,122.3,46.4l20.36-4.33c10.78,6.49,10.41,16.82-.82,23.09s-29.08,6.08-39.86-.41-10.4-16.82.83-23.08S131.89,35.58,142.66,42.07Z"/><path class="cls-3" d="M150.68,229.39a49.4,49.4,0,0,1-21.58,3.68c.28-.23.57-.71.93-.79l.62-.12,3.94-.72c.1,0,10.67-2.07,14.85-3.18,3.24-.86,3.24-.86,4.23-.4-.9.46-2.07,1.12-3,1.53Z"/><path class="cls-5" d="M106.23,233.29a83.73,83.73,0,0,1-8.55-1.95,64.72,64.72,0,0,1-15.62-6.63c-.81-.49-1.6-1-2.35-1.5a42.55,42.55,0,0,1-4.9-3.89l0,7.6a41.29,41.29,0,0,0,4.9,3.89c.76.52,1.54,1,2.36,1.51a64.93,64.93,0,0,0,15.62,6.62,85.65,85.65,0,0,0,8.54,2Z"/><path class="cls-11" d="M77,203.84l13.59-23.38a27.05,27.05,0,0,0,3.27,2.64l-12.2,24.51A37.66,37.66,0,0,1,77,203.84Z"/><path class="cls-8" d="M81.68,207.61l12.2-24.51c.56.39,1.14.77,1.76,1.14a41.33,41.33,0,0,0,8.47,3.81l-7.85,26.62a59.5,59.5,0,0,1-12.07-5.44c-.88-.53-1.72-1.07-2.51-1.62Z"/><path class="cls-11" d="M96.26,214.67l7.85-26.62a53.31,53.31,0,0,0,6.72,1.73l-5,27.35a77.36,77.36,0,0,1-9.59-2.46Z"/><path class="cls-8" d="M95.64,184.24a27.48,27.48,0,0,1-5.83-4.59l.09.1c.55.46,5.71-.38,5.81-.94.06-.32.06-.32-3-5.06a30.69,30.69,0,0,0,3.08,2.1,41.83,41.83,0,0,0,9.14,4c-2.3,1-3.16,1.34-2.18,2.66,2.61,3.51,6.75,5.58,9,6.5a25,25,0,0,0,6.13,1.63l.58.07c-8.38-.54-16.49-2.71-22.78-6.49Z"/><path class="cls-9" d="M90,161.74A302.91,302.91,0,0,0,100.6,83.2c0,3.14,2,6.27,6.07,8.71,8.34,5,22.14,5.16,30.84.31,4.47-2.49,6.72-5.82,6.71-9.15a302.18,302.18,0,0,0,11.05,78.48c0,5-3.35,10-10,13.69-13,7.26-33.67,7-46.15-.46C93,171.13,90,166.44,90,161.74Z"/><path class="cls-3" d="M123.7,180.54s1.61-39.19,2.47-52.52,6.19-34.1,8.52-17.93,7.42,55.17,10.54,65.15C145.48,175.41,135.6,180.54,123.7,180.54Z"/><path class="cls-8" d="M115.9,100.42c-1.13,47.63-4.27,77.31-4.4,78.55,0,.14.13.38,0,.48a40.09,40.09,0,0,1-12.44-4.67,25.78,25.78,0,0,1-2.87-2h0a406.87,406.87,0,0,0,7.64-83,16.42,16.42,0,0,0,2.82,2.1A27.26,27.26,0,0,0,116,95.23c0,1.55-.08,3.63-.12,5.19Z"/><path class="cls-8" d="M94.32,94.28c-.88-.55-2.07-1.29-2.89-1.93-.58-.46-1.37-1.06-1.92-1.55A22.28,22.28,0,0,1,87.59,89a22.77,22.77,0,0,1-3-3.82,19.56,19.56,0,0,1-2-4.24,18.87,18.87,0,0,1-.74-8.46,31.22,31.22,0,0,1,3-9.2,13.62,13.62,0,0,0,.2,12.54c1.71,3.31,4.77,6.44,9.19,9.1,14.86,8.94,39.47,9.19,55,.55,5.05-2.81,8.51-6.23,10.36-9.86A13.63,13.63,0,0,0,159.77,63a41.57,41.57,0,0,1,2,4.75,22.55,22.55,0,0,1,1.07,4.39,18.62,18.62,0,0,1-.6,8.2,19.21,19.21,0,0,1-1.88,4.28,23.86,23.86,0,0,1-2.56,3.53A28.07,28.07,0,0,1,154,91.71a33.88,33.88,0,0,1-4.59,3.06,41.26,41.26,0,0,1-5.17,2.49,54.72,54.72,0,0,1-5.46,1.85,59.45,59.45,0,0,1-11.41,2c-.87.06-2,.16-2.89.17s-2,0-2.9,0-2-.06-2.89-.09c-1.61,0-2.9-.22-5.73-.57a57.19,57.19,0,0,1-11-2.74A41.91,41.91,0,0,1,94.32,94.28Z"/><path class="cls-8" d="M85.13,75.78a13.62,13.62,0,0,1-.2-12.54c2.46-5.12,9-1.58,11.87-2.46-.15.34-.34.8-.48,1.15a8.78,8.78,0,0,0,.73,7.33c-2.77,2-9.44.49-11.92,6.52Z"/><path class="cls-8" d="M84.93,63.24c.49-.91,1.16-2.11,1.72-3L88,58.46c.53-.58,1.21-1.36,1.76-1.91L91.55,55l.77-.62,2-1.44c.69-.42,1.6-1,2.31-1.39L99,50.31c.75-.33,1.74-.79,2.5-1.09l2.53-.93c.78-.24,1.83-.58,2.62-.8l2.66-.67c.81-.16,1.9-.39,2.72-.53l2.74-.41c.83-.08,1.94-.22,2.78-.28l2.79-.16c.84,0,2,0,2.79,0l2.8.09c.83.06,2,.13,2.78.21l2.75.34c.82.14,1.91.3,2.73.46l2.67.59c.79.22,1.85.49,2.63.73l2.55.85c.75.29,1.76.67,2.5,1l2.39,1.12c.7.39,1.65.89,2.33,1.3-2.46-1.48-6.62,2.91-8.16,2l-1.49-.83c-.48-.22-1.11-.54-1.6-.75l-1.68-.67c-.53-.18-1.23-.43-1.76-.59l-1.83-.5c-.57-.13-1.33-.31-1.9-.42L128.89,50c-.6-.07-1.38-.18-2-.24l-2-.15c-.6,0-1.41-.06-2-.07l-2,0c-.6,0-1.41.07-2,.12l-2,.2-1.52.22-.28,0c-3.63.68-14.67,2.76-18.93,10.78-3.09.31-8.93-2.42-11.22,2.34Z"/><path class="cls-8" d="M159.64,75.57c-1.85,3.63-5.31,7.05-10.36,9.86-15.49,8.64-40.1,8.39-55-.55-4.42-2.66-7.48-5.79-9.19-9.1,2.48-6,9.15-4.56,11.92-6.52l.51.79c3.67,4.22,6.4,3.85,6.42,3.83.64-.57-5.28-11.45-5.33-11.56A21.52,21.52,0,0,0,102,64.75a35.61,35.61,0,0,0,12.52,4.36l-.43,1.74A6.25,6.25,0,0,1,111,75.19c-.41.24-1.13.58-1.21,1.06-.73,4.51,20.59,7.76,32.76-.62,4-2.77,5-5.39,5.35-6.38l.8.38c2.5.78,5.2.86,7.56,2.14a7.32,7.32,0,0,1,3.38,3.8Z"/><path class="cls-3" d="M85.13,75.78a13.62,13.62,0,0,1-.2-12.54,4.56,4.56,0,0,1,2.74-2.51L87,62.29a14.24,14.24,0,0,0,.5,10.29,7.41,7.41,0,0,0-2.4,3.2Z"/><path class="cls-6" d="M95.6,88.88c-1.36,2.43-5.74,2.36-8.22-.14L85.93,87c-.39-.56-.93-1.3-1.29-1.88l-1-1.83c-.3-.72-.72-1.67-1-2.41L82.14,79c-.13-.83-.31-2-.38-2.79l0-1.88c.09-1,.25-2.41.43-3.43l.38-1.56a36.24,36.24,0,0,1,2.38-6.1,13.62,13.62,0,0,0,.2,12.54c1.71,3.31,4.77,6.44,9.19,9.1q.78.47,1.59.9c0,.45.1,1,.14,1.5a3.65,3.65,0,0,1-.45,1.6Z"/><path class="cls-6" d="M162.29,71.2a13.31,13.31,0,0,1,.59,6.17l-.35,1.92-.29,1.07-.68,1.9c-.35.72-.8,1.68-1.2,2.38l-1.18,1.79c-.49.62-1.14,1.46-1.67,2.06l-1.64,1.65c-.62.53-1.44,1.26-2.09,1.77l-2.07,1.48-.11.07-.27.18c-21.79,12.92-51.86,6.74-50.64-3.78a7.86,7.86,0,0,1,.55-1.68c14.8,5.53,34.76,4.65,48-2.75,5.05-2.81,8.51-6.23,10.36-9.86a14,14,0,0,0,1.59-6.88l.49,1.06c.17.43.42,1,.57,1.45Z"/><path class="cls-3" d="M94.32,84.88c-4.42-2.66-7.48-5.79-9.19-9.1a7.41,7.41,0,0,1,2.4-3.2c.16.37.38.85.55,1.21a18.06,18.06,0,0,0,1.68,3.15c.34.52.78,1.21,1.13,1.72C91.83,80,93,81.16,94,82.5c.65.94,1.22,2.39,2,3.28q-.81-.44-1.59-.9Z"/><path class="cls-3" d="M159.64,75.57c-1.85,3.63-5.31,7.05-10.36,9.86-13.28,7.4-33.24,8.28-48,2.75l1.64-.9a13.89,13.89,0,0,1,5.56-1C120,86.67,144,87.46,156.63,72a7.38,7.38,0,0,1,3,3.59Z"/><path class="cls-3" d="M135.73,76.45a15.82,15.82,0,0,1-10.56,1.85c1.22-.6,7.5-2.86,11.7-2.57-.34.21-.78.52-1.14.72Z"/><path class="cls-9" d="M104,66.73A35.84,35.84,0,0,1,89.9,51a29.44,29.44,0,0,1-1.65-4.27c-.35-1.26-.79-2.94-1.06-4.22-.17-.84-.29-2-.41-2.82a37.18,37.18,0,0,1,.24-9.4,35.92,35.92,0,0,1,3.1-10,35.44,35.44,0,0,1,5.77-8.57,36.4,36.4,0,0,1,8.49-6.88,35.44,35.44,0,0,1,10.28-4A36,36,0,0,1,127.75.38a32.33,32.33,0,0,1,3.39.66,34.43,34.43,0,0,1,3.63,1.1,35,35,0,0,1,6.3,3h0A45.65,45.65,0,0,1,145,7.87a35.64,35.64,0,0,1,9.88,12.34,33.59,33.59,0,0,1,1.75,4.27,34.67,34.67,0,0,1,1.59,7A36.2,36.2,0,0,1,158,41.56a35.72,35.72,0,0,1-8.86,18.52A36.4,36.4,0,0,1,140.69,67,35.44,35.44,0,0,1,130.41,71a36.33,36.33,0,0,1-13.09.5c-1.41-.23-2.11-.35-3.4-.67a35.92,35.92,0,0,1-3.63-1.1A35.24,35.24,0,0,1,104,66.73Z"/><path class="cls-6" d="M153.56,54.13a39.31,39.31,0,0,1-4.38,5.95l-1.74,1.79c-.86.76-2,1.77-2.89,2.49l-1.9,1.37c-.78.49-1.81,1.15-2.61,1.6l-1.92,1c-.67.3-1.56.71-2.24,1l-1.82.67c-.58.18-1.35.43-1.94.6l-1.71.42c-.53.11-1.22.26-1.75.35l-1.64.25-1.65.16-1.6.09c-.48,0-1.12,0-1.6,0l-1.6,0c-.49,0-1.13-.07-1.61-.12l-1.64-.2c-.51-.09-1.18-.19-1.68-.29l-1.72-.38c-.54-.15-1.27-.33-1.81-.5l-1.82-.6c-.61-.24-1.42-.55-2-.81l-1.92-.9c-.71-.39-1.66-.89-2.35-1.3l-2-1.28a38.13,38.13,0,0,1-4.7-3.89L95.55,59.7c-1-1.15-2.16-2.73-3-3.94l-1.4-2.3c-.62-1.2-1.41-2.83-1.95-4.08l-.93-2.61c-.35-1.26-.79-2.94-1.06-4.22l-.41-2.82c-.07-1.1-.18-2.58-.19-3.68l.1-2.88a39,39,0,0,1,1.44-7.67l.9-2.62a35,35,0,0,1,2.48-5.13l1.43-2.23c.85-1.14,2-2.64,3-3.72L97.64,10c.85-.76,2-1.77,2.88-2.49l1.9-1.37c.78-.49,1.81-1.15,2.61-1.6l1.92-1c.67-.3,1.56-.71,2.24-1L111,1.89c.59-.18,1.36-.43,2-.6l1.71-.42c.52-.11,1.22-.26,1.75-.35L117.6.33l-.94.15C88.92,6,86.79,42.65,113.2,59.94c15,9.84,37.36,6.21,43.64-13.22l-.93,2.6a53.44,53.44,0,0,1-2.35,4.81Z"/><path class="cls-3" d="M140.14,27.62c1,7-6,12.88-13.33,8.67a9.88,9.88,0,0,1-4.69-7.94,9.38,9.38,0,0,1,5.2-8.25c4.17-1.81,11.93,1.16,12.82,7.52Z"/><path class="cls-3" d="M139.64,90.76l-.52-1.23a5.1,5.1,0,0,0-1.1-.08c-1.49.2-3.47.59-4.94.9a8.45,8.45,0,0,0-1.64.77c-.1.49-.54,1.17-.35,1.63,0,0,1.62,1.32,2.36,1.31a35.68,35.68,0,0,0,5-1.39,3,3,0,0,0,1.24-1.7C139.74,90.9,139.66,90.82,139.64,90.76Z"/></g></g></svg>